FFmpeg version SVN-r25716, Copyright (c) 2000-2010 the FFmpeg developers  built on Nov 10 2010 12:23:18 with gcc 4.1.2 20080704 (Red Hat 4.1.2-48)  configuration: --enable-libmp3lame --enable-shared --disable-mmx --arch=x86_64  libavutil     50.33. 0 / 50.33. 0  libavcore      0.12. 1 /  0.12. 1  libavcodec    52.94. 4 / 52.94. 4  libavformat   52.84. 0 / 52.84. 0  libavdevice   52. 2. 2 / 52. 2. 2  libavfilter    1.59. 0 /  1.59. 0  libswscale     0.12. 0 /  0.12. 0Input #0, avi, from '/RAID10/data/converted_video_files/7328.avi':  Duration: 00:00:30.00, start: 0.000000, bitrate: 9468 kb/s    Stream #0.0: Video: rawvideo, bgr24, 232x170, 10 tbr, 10 tbn, 10 tbc    Metadata:      title           : FileAVI write  [buffer @ 0x19700180] w:232 h:170 pixfmt:bgr24[ffsink @ 0x197003f0] auto-inserting filter 'auto-inserted scaler 0' between the filter 'src' and the filter 'out'[scale @ 0x19700710] w:232 h:170 fmt:bgr24 -> w:232 h:170 fmt:yuv420p flags:0x4Output #0, flv, to '/RAID10/data/converted_video_files/7328.flv':  Metadata:    encoder         : Lavf52.84.0    Stream #0.0: Video: flv, yuv420p, 232x170, q=2-31, 600 kb/s, 1k tbn, 24 tbc    Metadata:      title           : FileAVI write  Stream mapping:  Stream #0.0 -> #0.0Press [q] to stop encodingframe=  238 fps=  0 q=2.0 size=    1027kB time=23.75 bitrate= 354.3kbits/s    frame=  300 fps=  0 q=2.0 Lsize=    1293kB time=29.96 bitrate= 353.6kbits/s    video:1288kB audio:0kB global headers:0kB muxing overhead 0.379788%